<?xml version="1.0" encoding="iso-8859-1"?><!-- Generator: Adobe Illustrator 22.1.0, SVG Export Plug-In . SVG Version: 6.00 Build 0)  --><svg xmlns="http://www.w3.org/2000/svg" xmlns:xlink="http://www.w3.org/1999/xlink" viewBox="0 0 30 30" width="30px" height="30px"><path d="M5.585,22.06c-0.509-0.254-0.509-0.509-0.382-0.636c0.382-0.254,1.781-0.763,1.781-0.763l2.926-1.018v-2.671l-5.851,2.035l-0.89,0.382c-1.399,0.636-2.162,1.272-2.162,1.908c0.127,0.763,0.382,1.781,2.29,2.417c1.781,0.636,3.18,0.89,6.742-0.127v-2.29C6.603,22.441,6.094,22.314,5.585,22.06z"/><g><path d="M21.74,8.068c-0.763-1.018-2.162-1.908-4.198-2.544c-2.544-0.763-4.706-1.399-6.36-1.781v21.115l4.579,1.399V8.576c0-0.509,0-0.763,0.254-1.018c0.127-0.254,0.382-0.254,0.636-0.127c0.636,0.254,1.018,0.763,1.018,1.781v6.996c1.526,0.763,2.798,0.763,3.816,0c1.018-0.763,1.526-1.908,1.526-3.816C23.012,10.357,22.63,9.085,21.74,8.068z"/></g><path d="M26.574,18.625c-1.654-0.509-3.307-0.763-4.961-0.636c-1.399,0-2.671,0.254-4.198,0.636v2.671l2.798-1.018l1.526-0.509c0,0,0.636-0.127,1.018-0.254c0.636-0.127,1.399,0.127,1.399,0.127c0.382,0,0.636,0.127,0.636,0.382c0.127,0.254-0.127,0.382-0.763,0.636l-1.399,0.509l-5.088,1.908v2.671l2.29-0.763l6.36-2.29l0.763-0.382c1.526-0.509,2.162-1.145,2.035-1.908C28.99,19.643,28.1,19.134,26.574,18.625z"/></svg>